<?xml version="1.0" encoding="UTF-8"?>
<!--
doc: topology
package: VectorKit
repo: moot-memory
authored_commit: ecbe2bc361c83a1e8bc636767d33d0c678f88bd7
authored_date: 2026-07-04
sources:
  - path: Sources/VectorKit/EmbeddingProvider.swift
    blob: ad2bf52732b46960b9357a01fea37254d1681561
  - path: Sources/VectorKit/FloatSimHashEmbeddingProvider.swift
    blob: efcb85396ceace1373e3017c0f799371a9a5c3bf
  - path: Sources/VectorKit/VectorStore.swift
    blob: 3c7fe4a19eba1142ac82a993cee0e7660a4ffdce
  - path: Sources/VectorKit/VectorMatch.swift
    blob: 24cc2c1bd25f71a7cef60a043c3a640df2368a23
  - path: Sources/VectorKit/Engine/ResidentArrayStore.swift
    blob: 21c67979dfc05d761909edec9700849d7cad74a5
  - path: Sources/VectorKit/Engine/ResidentVectorArray.swift
    blob: 6e0f689702e4173388324b22fd828559ce0b1ab2
  - path: Sources/VectorKit/Engine/BruteForceIndex.swift
    blob: da3bdac5a6d2b84ff73e4ec66057bcc2acd2b2cb
  - path: Sources/VectorKit/Engine/MIHIndex.swift
    blob: 61e283122542218eaf1f057cd7b9f1022930956f
  - path: Sources/VectorKit/Engine/FloatBruteForceIndex.swift
    blob: 888d5a4079c84939b2cfde93160ee6bc3851adeb
  - path: Sources/VectorKit/Engine/MaxSimScorer.swift
    blob: 91875a79b8f6eebf6a2fd0a3a9dde85311a50aae
-->
<svg xmlns="http://www.w3.org/2000/svg" width="980" height="620" viewBox="0 0 980 620" font-family="Helvetica, Arial, sans-serif">
  <defs>
    <marker id="arrow" viewBox="0 0 10 10" refX="9" refY="5" markerWidth="7" markerHeight="7" orient="auto-start-reverse">
      <path d="M 0 0 L 10 5 L 0 10 z" fill="#333"/>
    </marker>
  </defs>

  <style>
    .box   { fill: #ffffff; stroke: #333; stroke-width: 1.5; }
    .art   { fill: #f4f4f4; stroke: #777; stroke-width: 1.2; }
    .label { font-size: 13px; fill: #111; }
    .sub   { font-size: 10.5px; fill: #555; }
    .flow  { stroke: #333; stroke-width: 1.5; fill: none; marker-end: url(#arrow); }
    .loop  { stroke: #888; stroke-width: 1.3; fill: none; marker-end: url(#arrow); stroke-dasharray: 5 3; }
    .region { fill: none; stroke: #999; stroke-width: 1.2; stroke-dasharray: 7 4; }
    .regionlabel { font-size: 11px; fill: #777; font-style: italic; }
  </style>

  <!-- Title -->
  <text x="20" y="28" font-size="15" font-weight="bold" fill="#111">VectorKit: text in, ranked matches out</text>

  <!-- Top row: embedding + store + results -->
  <rect class="box" x="20" y="55" width="150" height="54" rx="6"/>
  <text class="label" x="95" y="78" text-anchor="middle">EmbeddingProvider</text>
  <text class="sub" x="95" y="94" text-anchor="middle">text → Engram + floats</text>

  <rect class="box" x="410" y="55" width="150" height="54" rx="6"/>
  <text class="label" x="485" y="78" text-anchor="middle">VectorStore</text>
  <text class="sub" x="485" y="94" text-anchor="middle">write + search API</text>

  <rect class="box" x="800" y="55" width="150" height="54" rx="6"/>
  <text class="label" x="875" y="78" text-anchor="middle">VectorMatch</text>
  <text class="sub" x="875" y="94" text-anchor="middle">ranked results</text>

  <line class="flow" x1="170" y1="82" x2="408" y2="82"/>
  <line class="flow" x1="560" y1="82" x2="798" y2="82"/>

  <!-- Durable storage region -->
  <rect class="region" x="220" y="150" width="230" height="90"/>
  <text class="regionlabel" x="230" y="168">Durable storage boundary (PersistenceKit)</text>
  <rect class="art" x="255" y="182" width="160" height="48" rx="6"/>
  <text class="label" x="335" y="202" text-anchor="middle">vectors table</text>
  <text class="sub" x="335" y="217" text-anchor="middle">SQLite / InMemory / …</text>

  <!-- Sidecar cache region -->
  <rect class="region" x="500" y="150" width="260" height="90"/>
  <text class="regionlabel" x="510" y="168">Optional on-disk cache (regenerable)</text>
  <rect class="art" x="535" y="182" width="200" height="48" rx="6"/>
  <text class="label" x="635" y="202" text-anchor="middle">ResidentArrayStore</text>
  <text class="sub" x="635" y="217" text-anchor="middle">.vec sidecar, mmap load</text>

  <line class="flow" x1="450" y1="109" x2="345" y2="180"/>
  <line class="flow" x1="520" y1="109" x2="625" y2="180"/>

  <!-- Resident vector array (shared contract) -->
  <rect class="box" x="330" y="280" width="320" height="54" rx="6"/>
  <text class="label" x="490" y="302" text-anchor="middle">ResidentVectorArray</text>
  <text class="sub" x="490" y="318" text-anchor="middle">packed in-memory contract, all engines read this</text>

  <line class="flow" x1="335" y1="230" x2="450" y2="278"/>
  <line class="flow" x1="635" y1="230" x2="540" y2="278"/>

  <!-- Three search engines -->
  <rect class="box" x="60" y="400" width="170" height="58" rx="6"/>
  <text class="label" x="145" y="422" text-anchor="middle">BruteForceIndex</text>
  <text class="sub" x="145" y="437" text-anchor="middle">Lane A · binary oracle</text>
  <text class="sub" x="145" y="450" text-anchor="middle">Hamming, always active below threshold</text>

  <rect class="box" x="270" y="400" width="170" height="58" rx="6"/>
  <text class="label" x="355" y="422" text-anchor="middle">MIHIndex</text>
  <text class="sub" x="355" y="437" text-anchor="middle">Lane B · sub-linear exact</text>
  <text class="sub" x="355" y="450" text-anchor="middle">active at/above mihThreshold</text>

  <rect class="box" x="480" y="400" width="190" height="58" rx="6"/>
  <text class="label" x="575" y="422" text-anchor="middle">FloatBruteForceIndex</text>
  <text class="sub" x="575" y="437" text-anchor="middle">Lane C/D · one per modelID</text>
  <text class="sub" x="575" y="450" text-anchor="middle">cosine / l2 / dot</text>

  <line class="flow" x1="420" y1="334" x2="180" y2="398"/>
  <line class="flow" x1="470" y1="334" x2="370" y2="398"/>
  <line class="flow" x1="520" y1="334" x2="565" y2="398"/>

  <!-- Search dispatch back up to VectorStore / VectorMatch -->
  <path class="loop" d="M 145 400 C 145 300, 300 130, 408 90"/>
  <path class="loop" d="M 355 400 C 355 310, 400 140, 480 95"/>
  <path class="loop" d="M 575 400 C 620 320, 700 150, 800 85"/>
  <text class="regionlabel" x="700" y="380">DenseIndex.search dispatch (hotIndex or per-model float index)</text>

  <!-- MaxSimScorer: standalone, not wired into VectorStore -->
  <rect class="region" x="740" y="400" width="220" height="90"/>
  <text class="regionlabel" x="750" y="418">Standalone (not wired into VectorStore)</text>
  <rect class="art" x="760" y="432" width="180" height="48" rx="6"/>
  <text class="label" x="850" y="452" text-anchor="middle">MaxSimScorer</text>
  <text class="sub" x="850" y="467" text-anchor="middle">Lane E1 · ColBERT MaxSim</text>
</svg>
